<svg width="1024" height="1024" xmlns="http://www.w3.org/2000/svg">
 <g>
  <title>Layer 1</title>
  <path id="svg_4" d="m340.29955,347.84672" opacity="NaN" stroke-width="0" stroke="#000" fill="#000000"/>
  <path id="svg_5" d="m571.39553,498.75645l0.56913,0l0.17587,-0.54067l0.17587,0.54067l0.56913,0l-0.46044,0.33415l0.17588,0.54067l-0.46044,-0.33416l-0.46044,0.33416l0.17588,-0.54067l-0.46044,-0.33415z" stroke-width="0" stroke="#000" fill="#000000"/>
  <path id="svg_6" d="m701.87195,608.58191l0.56913,0l0.17587,-0.54067l0.17587,0.54067l0.56913,0l-0.46044,0.33415l0.17588,0.54067l-0.46044,-0.33416l-0.46044,0.33416l0.17588,-0.54067l-0.46044,-0.33415z" stroke-width="0" stroke="#000" fill="#000000"/>
  <path id="svg_7" d="m708.44269,653.63851l0.56913,0l0.17587,-0.54067l0.17587,0.54067l0.56913,0l-0.46044,0.33415l0.17588,0.54067l-0.46044,-0.33416l-0.46044,0.33416l0.17588,-0.54067l-0.46044,-0.33415z" stroke-width="0" stroke="#000" fill="#000000"/>
  <path id="svg_10" d="m301.99455,384.96018l0.36183,-0.36183l0.38437,0.38437l0.38437,-0.38437l0.36184,0.36183l-0.38437,0.38437l0.38437,0.38437l-0.36184,0.36184l-0.38437,-0.38437l-0.38437,0.38437l-0.36183,-0.36184l0.38437,-0.38437l-0.38437,-0.38437z" stroke-width="0" stroke="#000" fill="#000000"/>
  <path stroke="#000" id="svg_11" d="m152.27759,310.08011l173.60267,-176.57609l184.41542,187.57251l184.41542,-187.57251l173.6043,176.57609l-184.41547,187.57404l184.41547,187.57404l-173.6043,176.57775l-184.41542,-187.57409l-184.41542,187.57409l-173.60267,-176.57775l184.41391,-187.57404l-184.41391,-187.57404z" stroke-width="0" fill="#000000"/>
 </g>

</svg>